<svg width="15" height="11" viewBox="0 0 15 11" fill="none" xmlns="http://www.w3.org/2000/svg">
<path fill-rule="evenodd" clip-rule="evenodd" d="M7.15972 0.970842C7.43634 1.19865 7.43634 1.56799 7.15972 1.7958L2.70226 5.46665L7.15972 9.13751C7.43634 9.36531 7.43634 9.73466 7.15972 9.96247C6.8831 10.1903 6.43461 10.1903 6.15799 9.96247L0.698787 5.46665L6.15799 0.970842C6.43461 0.743036 6.8831 0.743036 7.15972 0.970842Z" fill="#1C1C1C"/>
<path fill-rule="evenodd" clip-rule="evenodd" d="M14.4561 5.46712C14.4561 5.14496 14.1389 4.88379 13.7477 4.88379H5.24772C4.85652 4.88379 4.53939 5.14496 4.53939 5.46712C4.53939 5.78929 4.85652 6.05046 5.24772 6.05046H13.7477C14.1389 6.05046 14.4561 5.78929 14.4561 5.46712Z" fill="#1C1C1C"/>
</svg>
