<svg width="16" height="16" viewBox="0 0 16 16" fill="none" xmlns="http://www.w3.org/2000/svg">
<path fill-rule="evenodd" clip-rule="evenodd" d="M3.18317 6.01701C3.54193 5.93422 3.89988 6.15793 3.98267 6.51669L5.86342 14.6666H10.1361L12.0168 6.51669C12.0996 6.15793 12.4576 5.93422 12.8163 6.01701C13.1751 6.0998 13.3988 6.45775 13.316 6.81651L11.316 15.4832C11.2462 15.7857 10.9768 15.9999 10.6664 15.9999H5.33307C5.02264 15.9999 4.75328 15.7857 4.68348 15.4832L2.68348 6.81651C2.60069 6.45775 2.82441 6.0998 3.18317 6.01701Z" fill="#1C1C1C"/>
<path fill-rule="evenodd" clip-rule="evenodd" d="M1.33325 6.66667C1.33325 6.29848 1.63173 6 1.99992 6H13.9999C14.3681 6 14.6666 6.29848 14.6666 6.66667C14.6666 7.03486 14.3681 7.33333 13.9999 7.33333H1.99992C1.63173 7.33333 1.33325 7.03486 1.33325 6.66667Z" fill="#1C1C1C"/>
<path fill-rule="evenodd" clip-rule="evenodd" d="M2.6665 3.99999C2.6665 3.26361 3.26346 2.66666 3.99984 2.66666H4.6665C5.03469 2.66666 5.33317 2.96513 5.33317 3.33332C5.33317 3.70151 5.03469 3.99999 4.6665 3.99999H3.99984V5.99999C3.99984 6.36818 3.70136 6.66666 3.33317 6.66666C2.96498 6.66666 2.6665 6.36818 2.6665 5.99999V3.99999Z" fill="#1C1C1C"/>
<path fill-rule="evenodd" clip-rule="evenodd" d="M4.6665 0.666667C4.6665 0.298477 4.96498 0 5.33317 0H10.6665C11.0347 0 11.3332 0.298477 11.3332 0.666667C11.3332 1.03486 11.0347 1.33333 10.6665 1.33333H5.33317C4.96498 1.33333 4.6665 1.03486 4.6665 0.666667Z" fill="#1C1C1C"/>
<path fill-rule="evenodd" clip-rule="evenodd" d="M6.6665 3.33332C6.6665 2.96513 6.96498 2.66666 7.33317 2.66666H11.9998C12.7362 2.66666 13.3332 3.26361 13.3332 3.99999V5.99999C13.3332 6.36818 13.0347 6.66666 12.6665 6.66666C12.2983 6.66666 11.9998 6.36818 11.9998 5.99999V3.99999H7.33317C6.96498 3.99999 6.6665 3.70151 6.6665 3.33332Z" fill="#1C1C1C"/>
</svg>
