<svg width="16" height="16" viewBox="0 0 16 16" fill="none" xmlns="http://www.w3.org/2000/svg">
<path fill-rule="evenodd" clip-rule="evenodd" d="M12.0334 2.8274C9.44667 1.72313 6.54959 1.72313 3.96291 2.8274L3.81457 2.89073C3.24241 3.13499 2.97384 3.87981 3.3041 4.48294L3.47598 4.79683C3.54357 4.92026 3.57037 5.06192 3.55253 5.20151L3.38122 6.54228L2.6747 12.7391C2.58545 13.4377 3.10458 13.9992 3.70071 13.9992C4.0689 13.9992 4.36738 14.2977 4.36738 14.6659C4.36738 15.0341 4.0689 15.3325 3.70071 15.3325C2.23942 15.3325 1.17158 14.0045 1.35144 12.575L2.05801 6.37777L2.20251 5.2473L2.13462 5.12332C1.44447 3.86296 1.95966 2.23285 3.29107 1.66446L3.43941 1.60114C6.36049 0.354105 9.63577 0.354105 12.5569 1.60114L12.7052 1.66446C14.0366 2.23285 14.5518 3.86296 13.8616 5.12332L13.7918 5.25089L14.6447 12.5742C14.8251 14.004 13.7571 15.3325 12.2956 15.3325H6.29583C5.92764 15.3325 5.62917 15.0341 5.62917 14.6659C5.62917 14.2977 5.92764 13.9992 6.29583 13.9992H12.2956C12.8917 13.9992 13.4109 13.4377 13.3216 12.7391L13.3207 12.7318L12.4428 5.19414C12.4268 5.05688 12.4539 4.91804 12.5203 4.79683L12.6922 4.48294C13.0224 3.87981 12.7539 3.13499 12.1817 2.89073L12.0334 2.8274Z" fill="#1C1C1C"/>
<path d="M5.99959 6.66517C5.99959 7.03336 5.70112 7.33184 5.33293 7.33184C4.96474 7.33184 4.66626 7.03336 4.66626 6.66517C4.66626 6.29698 4.96474 5.9985 5.33293 5.9985C5.70112 5.9985 5.99959 6.29698 5.99959 6.66517Z" fill="#1C1C1C"/>
<path d="M7.33272 4.66545C7.33272 5.03364 7.03425 5.33211 6.66606 5.33211C6.29787 5.33211 5.99939 5.03364 5.99939 4.66545C5.99939 4.29726 6.29787 3.99878 6.66606 3.99878C7.03425 3.99878 7.33272 4.29726 7.33272 4.66545Z" fill="#1C1C1C"/>
<path d="M9.33077 6.66517C9.33077 7.03336 9.03229 7.33184 8.6641 7.33184C8.29591 7.33184 7.99744 7.03336 7.99744 6.66517C7.99744 6.29698 8.29591 5.9985 8.6641 5.9985C9.03229 5.9985 9.33077 6.29698 9.33077 6.66517Z" fill="#1C1C1C"/>
<path d="M11.3322 4.66545C11.3322 5.03364 11.0338 5.33211 10.6656 5.33211C10.2974 5.33211 9.9989 5.03364 9.9989 4.66545C9.9989 4.29726 10.2974 3.99878 10.6656 3.99878C11.0338 3.99878 11.3322 4.29726 11.3322 4.66545Z" fill="#1C1C1C"/>
<path d="M7.99764 9.3332C7.99764 9.70139 7.69916 9.99987 7.33097 9.99987C6.96278 9.99987 6.66431 9.70139 6.66431 9.3332C6.66431 8.96501 6.96278 8.66653 7.33097 8.66653C7.69916 8.66653 7.99764 8.96501 7.99764 9.3332Z" fill="#1C1C1C"/>
<path d="M11.3322 8.00004C11.3322 8.36823 11.0338 8.66671 10.6656 8.66671C10.2974 8.66671 9.9989 8.36823 9.9989 8.00004C9.9989 7.63185 10.2974 7.33337 10.6656 7.33337C11.0338 7.33337 11.3322 7.63185 11.3322 8.00004Z" fill="#1C1C1C"/>
</svg>
