<svg width="16" height="16" viewBox="0 0 16 16" fill="none" xmlns="http://www.w3.org/2000/svg">
<path fill-rule="evenodd" clip-rule="evenodd" d="M0 10.6667C0 10.2985 0.298477 10 0.666667 10H4C4.36819 10 4.66667 10.2985 4.66667 10.6667C4.66667 11.0349 4.36819 11.3333 4 11.3333H1.33333V12.6667C1.33333 13.0349 1.63181 13.3333 2 13.3333H14C14.3682 13.3333 14.6667 13.0349 14.6667 12.6667V11.3333H7C6.63181 11.3333 6.33333 11.0349 6.33333 10.6667C6.33333 10.2985 6.63181 10 7 10H15.3333C15.7015 10 16 10.2985 16 10.6667V12.6667C16 13.7712 15.1046 14.6667 14 14.6667H2C0.89543 14.6667 0 13.7712 0 12.6667V10.6667Z" fill="#1C1C1C"/>
<path fill-rule="evenodd" clip-rule="evenodd" d="M1.33337 4.00001C1.33337 2.52725 2.52728 1.33334 4.00004 1.33334H12C13.4728 1.33334 14.6667 2.52725 14.6667 4.00001V8.00001C14.6667 8.3682 14.3682 8.66668 14 8.66668C13.6319 8.66668 13.3334 8.3682 13.3334 8.00001V4.00001C13.3334 3.26363 12.7364 2.66668 12 2.66668H4.00004C3.26366 2.66668 2.66671 3.26363 2.66671 4.00001V10C2.66671 10.3682 2.36823 10.6667 2.00004 10.6667C1.63185 10.6667 1.33337 10.3682 1.33337 10V4.00001Z" fill="#1C1C1C"/>
<path fill-rule="evenodd" clip-rule="evenodd" d="M5.33329 2C5.70148 2 5.99996 2.29848 5.99996 2.66667V5.33333C5.99996 5.70152 6.29844 6 6.66663 6H6.99996C7.18405 6 7.33329 5.85076 7.33329 5.66667C7.33329 4.74619 8.07949 4 8.99996 4C9.18405 4 9.33329 3.85076 9.33329 3.66667V2.66667C9.33329 2.29848 9.63177 2 9.99996 2C10.3681 2 10.6666 2.29848 10.6666 2.66667V3.66667C10.6666 4.58714 9.92043 5.33333 8.99996 5.33333C8.81587 5.33333 8.66663 5.48257 8.66663 5.66667C8.66663 6.58714 7.92043 7.33333 6.99996 7.33333H6.66663C5.56206 7.33333 4.66663 6.4379 4.66663 5.33333V2.66667C4.66663 2.29848 4.9651 2 5.33329 2Z" fill="#1C1C1C"/>
</svg>
