<svg width="16" height="16" viewBox="0 0 16 16" fill="none" xmlns="http://www.w3.org/2000/svg">
<path fill-rule="evenodd" clip-rule="evenodd" d="M1.47445 4.92305C1.60079 4.76124 1.79463 4.66666 1.99992 4.66666H13.9999C14.2052 4.66666 14.3991 4.76124 14.5254 4.92305C14.6517 5.08486 14.6965 5.29585 14.6467 5.49501L13.9999 8.08206V11.9179L14.6467 14.505C14.6965 14.7041 14.6517 14.9151 14.5254 15.0769C14.3991 15.2387 14.2052 15.3333 13.9999 15.3333H1.99992C1.79463 15.3333 1.60079 15.2387 1.47445 15.0769C1.34812 14.9151 1.30337 14.7041 1.35316 14.505L1.99992 11.9179V8.08206L1.35316 5.49501C1.30337 5.29585 1.34812 5.08486 1.47445 4.92305ZM2.85378 5.99999L3.31335 7.8383C3.32657 7.89118 3.33326 7.94548 3.33326 7.99999V12C3.33326 12.0545 3.32657 12.1088 3.31335 12.1617L2.85378 14H13.1461L12.6865 12.1617C12.6733 12.1088 12.6666 12.0545 12.6666 12V7.99999C12.6666 7.94548 12.6733 7.89118 12.6865 7.8383L13.1461 5.99999H2.85378Z" fill="#1C1C1C"/>
<path fill-rule="evenodd" clip-rule="evenodd" d="M4.6665 8.66667C4.6665 8.29848 4.96498 8 5.33317 8H13.3332C13.7014 8 13.9998 8.29848 13.9998 8.66667C13.9998 9.03486 13.7014 9.33333 13.3332 9.33333H5.33317C4.96498 9.33333 4.6665 9.03486 4.6665 8.66667Z" fill="#1C1C1C"/>
<path fill-rule="evenodd" clip-rule="evenodd" d="M5.55004 1.33333C4.64681 1.33333 3.99984 2.00029 3.99984 2.74074C3.99984 3.77064 4.90797 4.66667 6.10425 4.66667C6.47244 4.66667 6.77092 4.96514 6.77092 5.33333C6.77092 5.70152 6.47244 6 6.10425 6C4.26439 6 2.6665 4.59651 2.6665 2.74074C2.6665 1.18168 3.99544 0 5.55004 0C6.86367 0 7.99984 1.00132 7.99984 2.33494C7.99984 2.81847 7.83814 3.25028 7.51926 3.561C7.20591 3.86634 6.79675 4 6.39984 4C6.0459 4 5.67951 3.91468 5.37127 3.68067C5.05684 3.44196 4.87087 3.10004 4.79246 2.71644C4.71872 2.35571 4.95138 2.00351 5.31211 1.92977C5.67284 1.85603 6.02504 2.08869 6.09878 2.44942C6.12479 2.57664 6.16592 2.60992 6.1775 2.61871C6.19526 2.63219 6.25378 2.66667 6.39984 2.66667C6.50292 2.66667 6.56043 2.63366 6.58874 2.60607C6.61153 2.58386 6.6665 2.51648 6.6665 2.33494C6.6665 1.81993 6.21231 1.33333 5.55004 1.33333Z" fill="#1C1C1C"/>
</svg>
