<svg width="16" height="16" viewBox="0 0 16 16" fill="none" xmlns="http://www.w3.org/2000/svg">
<path fill-rule="evenodd" clip-rule="evenodd" d="M14.4612 5.21261C11.4289 0.526367 4.57249 0.526366 1.54022 5.21261C1.502 5.27167 1.50424 5.3482 1.54584 5.40493L8.53831 14.9401C8.75605 15.237 8.69186 15.6542 8.39495 15.872C8.09804 16.0897 7.68084 16.0255 7.46311 15.7286L0.47063 6.19341C0.101787 5.69044 0.0819549 5.01193 0.420788 4.48827L0.965666 4.84084L0.420788 4.48827C3.97847 -1.00997 12.0229 -1.00997 15.5806 4.48827C15.9195 5.01193 15.8996 5.69044 15.5308 6.19341L10.2494 13.3953C10.0317 13.6922 9.61446 13.7564 9.31755 13.5387C9.02064 13.3209 8.95646 12.9037 9.17419 12.6068L14.4556 5.40493C14.4972 5.3482 14.4994 5.27167 14.4612 5.21261Z" fill="#1C1C1C"/>
<path fill-rule="evenodd" clip-rule="evenodd" d="M8 5.33333C8.36819 5.33333 8.66667 5.63181 8.66667 6C8.66667 6.36819 8.36819 6.66667 8 6.66667C7.63181 6.66667 7.33333 6.36819 7.33333 6C7.33333 5.63181 7.63181 5.33333 8 5.33333ZM10 6C10 4.89543 9.10457 4 8 4C6.89543 4 6 4.89543 6 6C6 7.10457 6.89543 8 8 8C9.10457 8 10 7.10457 10 6Z" fill="#1C1C1C"/>
<path d="M4.00004 7.33335C4.00004 7.70154 4.29852 8.00002 4.66671 8.00002C5.0349 8.00002 5.33337 7.70154 5.33337 7.33335C5.33337 6.96516 5.0349 6.66669 4.66671 6.66669C4.29852 6.66669 4.00004 6.96516 4.00004 7.33335Z" fill="#1C1C1C"/>
<path d="M7.33329 10C7.33329 10.3682 7.63177 10.6667 7.99996 10.6667C8.36815 10.6667 8.66663 10.3682 8.66663 10C8.66663 9.63182 8.36815 9.33334 7.99996 9.33334C7.63177 9.33334 7.33329 9.63182 7.33329 10Z" fill="#1C1C1C"/>
<path d="M10.6667 4.00001C10.6667 4.3682 10.9651 4.66668 11.3333 4.66668C11.7015 4.66668 12 4.3682 12 4.00001C12 3.63182 11.7015 3.33334 11.3333 3.33334C10.9651 3.33334 10.6667 3.63182 10.6667 4.00001Z" fill="#1C1C1C"/>
</svg>
