<svg width="16" height="16" viewBox="0 0 16 16" fill="none" xmlns="http://www.w3.org/2000/svg">
<path fill-rule="evenodd" clip-rule="evenodd" d="M11.4555 7.96C11.7268 6.94954 12.7835 6.36703 13.7827 6.67719C14.7287 6.97083 15.2737 7.95946 15.0168 8.9161L14.636 10.3347C14.5774 10.5529 14.5033 10.7665 14.4141 10.9741L13.0291 14.1984C12.924 14.4433 12.6831 14.602 12.4166 14.602H7.99992C7.63173 14.602 7.33325 14.3035 7.33325 13.9353C7.33325 13.5671 7.63173 13.2686 7.99992 13.2686H11.9774L13.189 10.4478C13.253 10.2989 13.3062 10.1455 13.3483 9.98898L13.7291 8.57039C13.8002 8.30556 13.6494 8.03188 13.3875 7.95059C13.1109 7.86473 12.8183 8.02598 12.7432 8.30571L12.3371 9.81829C12.2432 10.1682 11.926 10.4115 11.5637 10.4115H11.4899C10.713 10.4115 10.0833 11.0413 10.0833 11.8181V11.8401C10.0833 12.2083 9.78477 12.5067 9.41659 12.5067C9.0484 12.5067 8.74992 12.2083 8.74992 11.8401V11.8181C8.74992 10.4201 9.79697 9.26661 11.1497 9.09908L11.4555 7.96Z" fill="#1C1C1C"/>
<path fill-rule="evenodd" clip-rule="evenodd" d="M3.49992 13.2708C3.86811 13.2708 4.16659 13.5693 4.16659 13.9375V15.3343C4.16659 15.7025 3.86811 16.001 3.49992 16.001C3.13173 16.001 2.83325 15.7025 2.83325 15.3343V13.9375C2.83325 13.5693 3.13173 13.2708 3.49992 13.2708Z" fill="#1C1C1C"/>
<path fill-rule="evenodd" clip-rule="evenodd" d="M11.7499 13.2708C12.1181 13.2708 12.4166 13.5693 12.4166 13.9375V15.3343C12.4166 15.7025 12.1181 16.001 11.7499 16.001C11.3817 16.001 11.0833 15.7025 11.0833 15.3343V13.9375C11.0833 13.5693 11.3817 13.2708 11.7499 13.2708Z" fill="#1C1C1C"/>
<path fill-rule="evenodd" clip-rule="evenodd" d="M3.33325 4.82534C2.96506 4.82534 2.66659 5.12381 2.66659 5.49201V9.45535C2.66659 10.8175 3.0778 12.1468 3.8446 13.2698H4.99992C5.36811 13.2698 5.66659 13.5683 5.66659 13.9364C5.66659 14.3046 5.36811 14.6031 4.99992 14.6031H3.69088C3.35598 14.6031 3.04164 14.4416 2.84669 14.1693C1.86247 12.7945 1.33325 11.1461 1.33325 9.45535V5.49201C1.33325 4.38744 2.22868 3.492 3.33325 3.492H3.49992C3.86811 3.492 4.16659 3.79048 4.16659 4.15867C4.16659 4.52686 3.86811 4.82534 3.49992 4.82534H3.33325Z" fill="#1C1C1C"/>
<path fill-rule="evenodd" clip-rule="evenodd" d="M5.58325 2.032C5.21506 2.032 4.91659 2.33048 4.91659 2.69867V6.25423C4.91659 6.62241 4.61811 6.92089 4.24992 6.92089C3.88173 6.92089 3.58325 6.62241 3.58325 6.25423V2.69867C3.58325 1.5941 4.47868 0.698669 5.58325 0.698669H6.49992C6.86811 0.698669 7.16659 0.997146 7.16659 1.36534C7.16659 1.73353 6.86811 2.032 6.49992 2.032H5.58325Z" fill="#1C1C1C"/>
<path fill-rule="evenodd" clip-rule="evenodd" d="M7.62492 1.33333C7.37179 1.33333 7.16659 1.53854 7.16659 1.79167V6.25397C7.16659 6.62216 6.86811 6.92064 6.49992 6.92064C6.13173 6.92064 5.83325 6.62216 5.83325 6.25397V1.79167C5.83325 0.802157 6.63541 0 7.62492 0C8.61443 0 9.41659 0.802157 9.41659 1.79167V6.25397C9.41659 6.62216 9.11811 6.92064 8.74992 6.92064C8.38173 6.92064 8.08325 6.62216 8.08325 6.25397V1.79167C8.08325 1.53854 7.87805 1.33333 7.62492 1.33333Z" fill="#1C1C1C"/>
<path fill-rule="evenodd" clip-rule="evenodd" d="M8.08325 1.36534C8.08325 0.997146 8.38173 0.698669 8.74992 0.698669H9.66659C10.7712 0.698669 11.6666 1.5941 11.6666 2.69867V6.22248C11.6666 6.59067 11.3681 6.88915 10.9999 6.88915C10.6317 6.88915 10.3333 6.59067 10.3333 6.22248V2.69867C10.3333 2.33048 10.0348 2.032 9.66659 2.032H8.74992C8.38173 2.032 8.08325 1.73353 8.08325 1.36534Z" fill="#1C1C1C"/>
</svg>
