<svg width="16" height="16" viewBox="0 0 16 16" fill="none" xmlns="http://www.w3.org/2000/svg">
<path fill-rule="evenodd" clip-rule="evenodd" d="M0.666626 3.33332C0.666626 1.86056 1.86053 0.666656 3.33329 0.666656H12.6666C14.1394 0.666656 15.3333 1.86056 15.3333 3.33332V12.6667C15.3333 14.1394 14.1394 15.3333 12.6666 15.3333H7.33329C6.9651 15.3333 6.66663 15.0348 6.66663 14.6667C6.66663 14.2985 6.9651 14 7.33329 14H12.6666C13.403 14 14 13.403 14 12.6667V3.33332C14 2.59694 13.403 1.99999 12.6666 1.99999H3.33329C2.59691 1.99999 1.99996 2.59694 1.99996 3.33332V12.6667C1.99996 13.403 2.59691 14 3.33329 14H3.99996C4.36815 14 4.66663 14.2985 4.66663 14.6667C4.66663 15.0348 4.36815 15.3333 3.99996 15.3333H3.33329C1.86053 15.3333 0.666626 14.1394 0.666626 12.6667V3.33332Z" fill="#1C1C1C"/>
<path fill-rule="evenodd" clip-rule="evenodd" d="M4.79543 5.10517L5.18599 6.66745H10.8116L11.2022 5.10517C9.11943 4.43368 6.87819 4.43368 4.79543 5.10517ZM4.27585 3.87237C6.69246 3.06683 9.30516 3.06683 11.7218 3.87237C12.3275 4.07429 12.6757 4.70856 12.5208 5.32803L11.9789 7.4958C11.9047 7.79258 11.6381 8.00078 11.3321 8.00078H4.66548C4.35957 8.00078 4.09291 7.79258 4.01872 7.4958L3.47677 5.32803C3.3219 4.70856 3.67008 4.07429 4.27585 3.87237Z" fill="#1C1C1C"/>
<path fill-rule="evenodd" clip-rule="evenodd" d="M7.99992 5.33331C8.36811 5.33331 8.66659 5.63179 8.66659 5.99998V7.33331C8.66659 7.7015 8.36811 7.99998 7.99992 7.99998C7.63173 7.99998 7.33325 7.7015 7.33325 7.33331V5.99998C7.33325 5.63179 7.63173 5.33331 7.99992 5.33331Z" fill="#1C1C1C"/>
</svg>
