<svg width="16" height="16" viewBox="0 0 16 16" fill="none" xmlns="http://www.w3.org/2000/svg">
<path fill-rule="evenodd" clip-rule="evenodd" d="M1.35227 12.6666H2.66667C3.03486 12.6666 3.33333 12.3682 3.33333 12C3.33333 11.6318 3.03486 11.3333 2.66667 11.3333H1.03704C0.464298 11.3333 0 11.7976 0 12.3703C0 14.3749 1.62504 16 3.62963 16H12.3704C14.375 16 16 14.3749 16 12.3704C16 11.7976 15.5357 11.3333 14.963 11.3333H6C5.63181 11.3333 5.33333 11.6318 5.33333 12C5.33333 12.3682 5.63181 12.6666 6 12.6666H14.6477C14.5024 13.7949 13.5382 14.6666 12.3704 14.6666H3.62963C2.46182 14.6666 1.49762 13.7949 1.35227 12.6666Z" fill="#1C1C1C"/>
<path fill-rule="evenodd" clip-rule="evenodd" d="M4.99776 7.07633C5.57205 6.01113 6.71787 5.33331 8 5.33331C9.30897 5.33331 10.3984 6.06387 10.9839 7.07415C12.6881 7.27244 14 8.65892 14 10.4138V12C14 12.3682 13.7015 12.6666 13.3333 12.6666C12.9651 12.6666 12.6667 12.3682 12.6667 12V10.4138C12.6667 9.2868 11.7645 8.38312 10.5617 8.38312C10.2949 8.38312 10.0538 8.22409 9.94882 7.97885C9.62349 7.219 8.88367 6.66665 8 6.66665C7.08765 6.66665 6.33948 7.20192 6.06358 7.94775C5.96679 8.20941 5.7173 8.38312 5.43832 8.38312C4.2355 8.38312 3.33333 9.2868 3.33333 10.4138V12C3.33333 12.3682 3.03486 12.6666 2.66667 12.6666C2.29848 12.6666 2 12.3682 2 12V10.4138C2 8.66522 3.30251 7.28239 4.99776 7.07633Z" fill="#1C1C1C"/>
<path fill-rule="evenodd" clip-rule="evenodd" d="M5.97052 0.470512C6.0788 0.82242 5.8813 1.19548 5.52939 1.30376C5.52985 1.30361 5.52942 1.30382 5.52822 1.3044C5.51939 1.30866 5.46875 1.33311 5.42146 1.38793C5.37993 1.43607 5.33333 1.51514 5.33333 1.66016C5.33333 1.81053 5.37178 1.86741 5.48752 1.99149C5.49633 2.00095 5.50831 2.01289 5.52275 2.02729C5.65623 2.16038 6 2.50315 6 3.02554V3.33324C6 3.70143 5.70152 3.9999 5.33333 3.9999C4.96514 3.9999 4.66667 3.70143 4.66667 3.33324V3.07072C4.64604 3.04754 4.60155 2.99643 4.51248 2.90094C4.29489 2.66765 4 2.29825 4 1.66016C4 0.657493 4.71923 0.158014 5.13728 0.0293832C5.48918 -0.0788962 5.86224 0.118604 5.97052 0.470512Z" fill="#1C1C1C"/>
<path fill-rule="evenodd" clip-rule="evenodd" d="M8.63727 0.470512C8.74555 0.82242 8.54805 1.19548 8.19614 1.30376C8.1966 1.30361 8.19617 1.30382 8.19497 1.3044C8.18614 1.30866 8.1355 1.33311 8.08821 1.38793C8.04668 1.43607 8.00008 1.51514 8.00008 1.66016C8.00008 1.81053 8.03853 1.86741 8.15426 1.99149C8.16308 2.00095 8.17506 2.01289 8.1895 2.02729C8.32297 2.16038 8.66675 2.50315 8.66675 3.02554V3.33324C8.66675 3.70143 8.36827 3.9999 8.00008 3.9999C7.63189 3.9999 7.33341 3.70143 7.33341 3.33324V3.07072C7.31279 3.04754 7.2683 2.99643 7.17923 2.90094C6.96164 2.66765 6.66675 2.29825 6.66675 1.66016C6.66675 0.657493 7.38597 0.158014 7.80402 0.0293832C8.15593 -0.0788962 8.52899 0.118604 8.63727 0.470512Z" fill="#1C1C1C"/>
<path fill-rule="evenodd" clip-rule="evenodd" d="M11.3038 0.470512C11.4121 0.82242 11.2146 1.19548 10.8626 1.30376C10.8631 1.30361 10.8627 1.30382 10.8615 1.3044C10.8526 1.30866 10.802 1.33311 10.7547 1.38793C10.7132 1.43607 10.6666 1.51514 10.6666 1.66016C10.6666 1.81053 10.705 1.86741 10.8208 1.99149C10.8296 2.00095 10.8416 2.01289 10.856 2.02729C10.9895 2.16038 11.3333 2.50315 11.3333 3.02554V3.33324C11.3333 3.70143 11.0348 3.9999 10.6666 3.9999C10.2984 3.9999 9.99992 3.70143 9.99992 3.33324V3.07072C9.97929 3.04754 9.9348 2.99643 9.84574 2.90094C9.62814 2.66765 9.33325 2.29825 9.33325 1.66016C9.33325 0.657493 10.0525 0.158014 10.4705 0.0293832C10.8224 -0.0788962 11.1955 0.118604 11.3038 0.470512Z" fill="#1C1C1C"/>
</svg>
