<svg width="16" height="17" viewBox="0 0 16 17" fill="none" xmlns="http://www.w3.org/2000/svg">
<path fill-rule="evenodd" clip-rule="evenodd" d="M0.205779 11.2318C-0.05457 10.9715 -0.0545701 10.5494 0.205779 10.289C1.74227 8.75254 4.23342 8.75254 5.76991 10.289C7.3064 11.8255 7.3064 14.3167 5.76991 15.8532C5.50956 16.1135 5.08745 16.1135 4.8271 15.8532L0.205779 11.2318ZM1.68096 10.8214L5.23754 14.378C5.81675 13.3824 5.67994 12.0847 4.8271 11.2318C3.97426 10.379 2.67654 10.2422 1.68096 10.8214Z" fill="#1C1C1C"/>
<path fill-rule="evenodd" clip-rule="evenodd" d="M5.64151 11.3732C5.29864 11.5074 4.91192 11.3382 4.77775 10.9953C3.75348 8.37773 3.28182 4.89054 5.97656 2.19581C8.68736 -0.514993 12.5021 0.17818 14.663 1.25863C14.9923 1.42329 15.1258 1.82374 14.9611 2.15306C14.7965 2.48237 14.396 2.61586 14.0667 2.4512C12.1197 1.47772 9.02956 1.02843 6.91937 3.13861C4.79312 5.26486 5.06311 8.06557 6.01941 10.5094C6.15357 10.8523 5.98438 11.239 5.64151 11.3732Z" fill="#1C1C1C"/>
<path fill-rule="evenodd" clip-rule="evenodd" d="M6.33688 1.95816C6.59723 1.69781 7.01934 1.69781 7.27969 1.95816L12.4641 7.1426C12.7245 7.40294 12.7245 7.82505 12.4641 8.0854C12.2038 8.34575 11.7817 8.34575 11.5213 8.0854L6.33688 2.90097C6.07653 2.64062 6.07653 2.21851 6.33688 1.95816Z" fill="#1C1C1C"/>
<path fill-rule="evenodd" clip-rule="evenodd" d="M7.66904 11.1976C7.64494 11.565 7.92323 11.8824 8.29063 11.9065C9.91213 12.0129 12.2492 12.0176 14.0236 10.2431C16.7344 7.53233 16.0413 3.71761 14.9608 1.55671C14.7961 1.2274 14.3957 1.09391 14.0664 1.25857C13.7371 1.42323 13.6036 1.82368 13.7682 2.153C14.7417 4.09995 15.191 7.19013 13.0808 9.30032C11.7565 10.6247 9.97443 10.6808 8.37792 10.576C8.01052 10.5519 7.69314 10.8302 7.66904 11.1976Z" fill="#1C1C1C"/>
<path d="M12.6667 3.71354C12.6667 4.08173 12.3682 4.38021 12 4.38021C11.6319 4.38021 11.3334 4.08173 11.3334 3.71354C11.3334 3.34535 11.6319 3.04688 12 3.04688C12.3682 3.04688 12.6667 3.34535 12.6667 3.71354Z" fill="#1C1C1C"/>
</svg>
