<svg width="16" height="16" viewBox="0 0 16 16" fill="none" xmlns="http://www.w3.org/2000/svg">
<path fill-rule="evenodd" clip-rule="evenodd" d="M8.00004 0C8.36823 0 8.66671 0.298477 8.66671 0.666667V5.33333C8.66671 5.70152 8.36823 6 8.00004 6C7.63185 6 7.33337 5.70152 7.33337 5.33333V0.666667C7.33337 0.298477 7.63185 0 8.00004 0ZM8.00004 10C8.36823 10 8.66671 10.2985 8.66671 10.6667V15.3333C8.66671 15.7015 8.36823 16 8.00004 16C7.63185 16 7.33337 15.7015 7.33337 15.3333V10.6667C7.33337 10.2985 7.63185 10 8.00004 10Z" fill="#1C1C1C"/>
<path fill-rule="evenodd" clip-rule="evenodd" d="M0 8.00001C0 7.63182 0.298477 7.33334 0.666667 7.33334H5.33333C5.70152 7.33334 6 7.63182 6 8.00001C6 8.3682 5.70152 8.66668 5.33333 8.66668H0.666667C0.298477 8.66668 0 8.3682 0 8.00001ZM10 8.00001C10 7.63182 10.2985 7.33334 10.6667 7.33334H15.3333C15.7015 7.33334 16 7.63182 16 8.00001C16 8.3682 15.7015 8.66668 15.3333 8.66668H10.6667C10.2985 8.66668 10 8.3682 10 8.00001Z" fill="#1C1C1C"/>
<path fill-rule="evenodd" clip-rule="evenodd" d="M5.24558 1.76376C5.44982 1.45741 5.86373 1.37463 6.17008 1.57886L8.37008 3.04553C8.67643 3.24977 8.75922 3.66368 8.55498 3.97003C8.35075 4.27638 7.93683 4.35917 7.63048 4.15493L5.43048 2.68826C5.12413 2.48403 5.04135 2.07012 5.24558 1.76376Z" fill="#1C1C1C"/>
<path fill-rule="evenodd" clip-rule="evenodd" d="M10.7544 14.2362C10.5502 14.5426 10.1363 14.6254 9.82992 14.4211L7.62992 12.9545C7.32357 12.7502 7.24078 12.3363 7.44502 12.03C7.64925 11.7236 8.06317 11.6408 8.36952 11.8451L10.5695 13.3117C10.8759 13.516 10.9587 13.9299 10.7544 14.2362Z" fill="#1C1C1C"/>
<path fill-rule="evenodd" clip-rule="evenodd" d="M1.76373 10.7545C1.45738 10.5502 1.3746 10.1363 1.57883 9.82998L3.0455 7.62998C3.24974 7.32363 3.66365 7.24084 3.97 7.44508C4.27635 7.64931 4.35914 8.06323 4.1549 8.36958L2.68823 10.5696C2.484 10.8759 2.07009 10.9587 1.76373 10.7545Z" fill="#1C1C1C"/>
<path fill-rule="evenodd" clip-rule="evenodd" d="M14.2363 10.7545C14.5426 10.5502 14.6254 10.1363 14.4212 9.82998L12.9545 7.62998C12.7503 7.32363 12.3364 7.24084 12.03 7.44508C11.7236 7.64931 11.6409 8.06323 11.8451 8.36958L13.3118 10.5696C13.516 10.8759 13.9299 10.9587 14.2363 10.7545Z" fill="#1C1C1C"/>
<path fill-rule="evenodd" clip-rule="evenodd" d="M10.7544 1.76376C10.5502 1.45741 10.1363 1.37463 9.82992 1.57886L7.62992 3.04553C7.32357 3.24977 7.24078 3.66368 7.44502 3.97003C7.64925 4.27638 8.06317 4.35917 8.36952 4.15493L10.5695 2.68826C10.8759 2.48403 10.9587 2.07012 10.7544 1.76376Z" fill="#1C1C1C"/>
<path fill-rule="evenodd" clip-rule="evenodd" d="M5.24558 14.2362C5.44982 14.5426 5.86373 14.6254 6.17008 14.4211L8.37008 12.9545C8.67643 12.7502 8.75922 12.3363 8.55498 12.03C8.35075 11.7236 7.93683 11.6408 7.63048 11.8451L5.43048 13.3117C5.12413 13.516 5.04135 13.9299 5.24558 14.2362Z" fill="#1C1C1C"/>
<path fill-rule="evenodd" clip-rule="evenodd" d="M1.76373 5.24552C1.45738 5.44976 1.3746 5.86367 1.57883 6.17002L3.0455 8.37002C3.24974 8.67637 3.66365 8.75916 3.97 8.55492C4.27635 8.35069 4.35914 7.93677 4.1549 7.63042L2.68823 5.43042C2.484 5.12407 2.07009 5.04129 1.76373 5.24552Z" fill="#1C1C1C"/>
<path fill-rule="evenodd" clip-rule="evenodd" d="M14.2363 5.24552C14.5426 5.44976 14.6254 5.86367 14.4212 6.17002L12.9545 8.37002C12.7503 8.67637 12.3364 8.75916 12.03 8.55492C11.7236 8.35069 11.6409 7.93677 11.8451 7.63042L13.3118 5.43042C13.516 5.12407 13.9299 5.04129 14.2363 5.24552Z" fill="#1C1C1C"/>
<path fill-rule="evenodd" clip-rule="evenodd" d="M8.00004 6.66668C7.26366 6.66668 6.66671 7.26363 6.66671 8.00001C6.66671 8.73639 7.26366 9.33334 8.00004 9.33334C8.73642 9.33334 9.33337 8.73639 9.33337 8.00001C9.33337 7.26363 8.73642 6.66668 8.00004 6.66668ZM5.33337 8.00001C5.33337 6.52725 6.52728 5.33334 8.00004 5.33334C9.4728 5.33334 10.6667 6.52725 10.6667 8.00001C10.6667 9.47277 9.4728 10.6667 8.00004 10.6667C6.52728 10.6667 5.33337 9.47277 5.33337 8.00001Z" fill="#1C1C1C"/>
</svg>
