<svg width="16" height="16" viewBox="0 0 16 16" fill="none" xmlns="http://www.w3.org/2000/svg">
<path fill-rule="evenodd" clip-rule="evenodd" d="M8.47435 0.815944C8.84919 0.378974 9.39803 0 10.1772 0C10.9214 0 11.4682 0.403826 11.8427 0.878983C12.2088 1.3434 12.4569 1.92865 12.6326 2.45585C12.749 2.80514 12.5603 3.18269 12.211 3.29912C11.8617 3.41555 11.4841 3.22678 11.3677 2.87749C11.2101 2.40469 11.0207 1.98993 10.7956 1.70435C10.5789 1.42951 10.3809 1.33333 10.1772 1.33333C9.88976 1.33333 9.68339 1.45436 9.48636 1.68406C9.28437 1.91952 9.13707 2.21531 8.97373 2.5433C8.95922 2.57244 8.94458 2.60184 8.92976 2.63148C8.83393 2.82315 8.6518 2.95707 8.44027 2.99139C8.22874 3.02572 8.0136 2.95627 7.86207 2.80474C7.25117 2.19383 6.87827 2 6.33348 2C5.94881 2 5.58191 2.32718 5.2631 2.96481C5.09844 3.29413 4.69799 3.42761 4.36867 3.26295C4.03935 3.09829 3.90587 2.69784 4.07053 2.36852C4.41838 1.67282 5.11814 0.666667 6.33348 0.666667C7.0672 0.666667 7.62617 0.895276 8.14153 1.27744C8.23853 1.12049 8.34891 0.962173 8.47435 0.815944Z" fill="#1C1C1C"/>
<path fill-rule="evenodd" clip-rule="evenodd" d="M0.666748 5.99999C0.666748 5.26361 1.2637 4.66666 2.00008 4.66666H14.0001C14.7365 4.66666 15.3334 5.26361 15.3334 5.99999V7.33332C15.3334 8.0697 14.7365 8.66666 14.0001 8.66666V14C14.0001 15.1046 13.1047 16 12.0001 16H4.00008C2.89551 16 2.00008 15.1046 2.00008 14V9.99999C2.00008 9.6318 2.29856 9.33332 2.66675 9.33332C3.03494 9.33332 3.33341 9.6318 3.33341 9.99999V14C3.33341 14.3682 3.63189 14.6667 4.00008 14.6667H12.0001C12.3683 14.6667 12.6667 14.3682 12.6667 14V8.66666C12.6667 7.93028 13.2637 7.33332 14.0001 7.33332V5.99999H2.00008V7.33332H10.6667C11.0349 7.33332 11.3334 7.6318 11.3334 7.99999C11.3334 8.36818 11.0349 8.66666 10.6667 8.66666H2.00008C1.2637 8.66666 0.666748 8.0697 0.666748 7.33332V5.99999Z" fill="#1C1C1C"/>
</svg>
