<svg width="16" height="16" viewBox="0 0 16 16" fill="none" xmlns="http://www.w3.org/2000/svg">
<path fill-rule="evenodd" clip-rule="evenodd" d="M0 5.33333C0 4.59695 0.596954 4 1.33333 4H9.33333C10.0697 4 10.6667 4.59695 10.6667 5.33333V14.6667C10.6667 15.403 10.0697 16 9.33333 16H1.33333C0.596954 16 0 15.403 0 14.6667V5.33333ZM9.33333 5.33333H1.33333V14.6667H9.33333V5.33333Z" fill="#1C1C1C"/>
<path fill-rule="evenodd" clip-rule="evenodd" d="M3.33325 7.33332C3.33325 6.96513 3.63173 6.66666 3.99992 6.66666H9.33325C9.70144 6.66666 9.99992 6.96513 9.99992 7.33332C9.99992 7.70151 9.70144 7.99999 9.33325 7.99999H3.99992C3.63173 7.99999 3.33325 7.70151 3.33325 7.33332Z" fill="#1C1C1C"/>
<path fill-rule="evenodd" clip-rule="evenodd" d="M8.00008 1.33333C8.00008 0.596954 8.59703 0 9.33341 0H12.6667C13.4031 0 14.0001 0.596954 14.0001 1.33333V1.72386L14.9429 2.66667C15.1929 2.91672 15.3334 3.25585 15.3334 3.60948V11.3333C15.3334 12.0697 14.7365 12.6667 14.0001 12.6667H12.6667C12.2986 12.6667 12.0001 12.3682 12.0001 12C12.0001 11.6318 12.2986 11.3333 12.6667 11.3333H14.0001V3.60948L13.0573 2.66667C12.8072 2.41662 12.6667 2.07748 12.6667 1.72386V1.33333H9.33341V1.72386C9.33341 2.07748 9.19294 2.41662 8.94289 2.66667L8.00008 3.60948L8.00008 4.66667C8.00008 5.03486 7.7016 5.33333 7.33341 5.33333C6.96522 5.33333 6.66675 5.03486 6.66675 4.66667V3.60948C6.66675 3.25585 6.80722 2.91672 7.05727 2.66667L8.00008 1.72386V1.33333Z" fill="#1C1C1C"/>
<path fill-rule="evenodd" clip-rule="evenodd" d="M4.289 10.9452C4.04626 11.1071 4.00008 11.2574 4.00008 11.3333C4.00008 11.4093 4.04626 11.5596 4.289 11.7215C4.52708 11.8802 4.89439 12 5.33341 12C5.77244 12 6.13975 11.8802 6.37783 11.7215C6.62057 11.5596 6.66675 11.4093 6.66675 11.3333C6.66675 11.2574 6.62057 11.1071 6.37783 10.9452C6.13975 10.7865 5.77244 10.6667 5.33341 10.6667C4.89439 10.6667 4.52708 10.7865 4.289 10.9452ZM3.5494 9.83583C4.03518 9.51198 4.66787 9.33334 5.33341 9.33334C5.99896 9.33334 6.63165 9.51198 7.11743 9.83583C7.59855 10.1566 8.00008 10.6729 8.00008 11.3333C8.00008 11.9938 7.59855 12.5101 7.11743 12.8309C6.63165 13.1547 5.99896 13.3333 5.33341 13.3333C4.66787 13.3333 4.03518 13.1547 3.5494 12.8309C3.06828 12.5101 2.66675 11.9938 2.66675 11.3333C2.66675 10.6729 3.06828 10.1566 3.5494 9.83583Z" fill="#1C1C1C"/>
</svg>
