<svg width="16" height="16" viewBox="0 0 16 16" fill="none" xmlns="http://www.w3.org/2000/svg">
<path fill-rule="evenodd" clip-rule="evenodd" d="M5.34472 2.71998C5.68342 2.86436 5.84094 3.25598 5.69656 3.59468L3.99996 7.57468V13.3333C3.99996 14.0696 4.59691 14.6666 5.33329 14.6666H10.6666C11.403 14.6666 12 14.0696 12 13.3332V7.57468L10.4761 3.99992H7.99996C7.63177 3.99992 7.33329 3.70144 7.33329 3.33325C7.33329 2.96506 7.63177 2.66658 7.99996 2.66658H10.9166C11.1838 2.66658 11.4251 2.82607 11.5299 3.07182L13.2799 7.17709C13.3151 7.25974 13.3333 7.34866 13.3333 7.43851V13.3332C13.3333 14.806 12.1394 15.9999 10.6666 15.9999H5.33329C3.86053 15.9999 2.66663 14.806 2.66663 13.3333V7.43851C2.66663 7.34866 2.68479 7.25974 2.72002 7.17709L4.47002 3.07182C4.6144 2.73312 5.00602 2.5756 5.34472 2.71998Z" fill="#1C1C1C"/>
<path fill-rule="evenodd" clip-rule="evenodd" d="M5.33325 8.66668C5.33325 7.9303 5.93021 7.33334 6.66659 7.33334H9.99992C10.3681 7.33334 10.6666 7.63182 10.6666 8.00001C10.6666 8.3682 10.3681 8.66668 9.99992 8.66668H6.66659V10.6667H11.9999C12.3681 10.6667 12.6666 10.9652 12.6666 11.3333C12.6666 11.7015 12.3681 12 11.9999 12H6.66659C5.93021 12 5.33325 11.4031 5.33325 10.6667V8.66668Z" fill="#1C1C1C"/>
<path fill-rule="evenodd" clip-rule="evenodd" d="M4.66663 0.666667C4.66663 0.298477 4.9651 0 5.33329 0H10.6666C11.0348 0 11.3333 0.298477 11.3333 0.666667C11.3333 1.03486 11.0348 1.33333 10.6666 1.33333H5.33329C4.9651 1.33333 4.66663 1.03486 4.66663 0.666667Z" fill="#1C1C1C"/>
</svg>
