<svg width="16" height="16" viewBox="0 0 16 16" fill="none" xmlns="http://www.w3.org/2000/svg">
<path fill-rule="evenodd" clip-rule="evenodd" d="M9.42857 4.95238C9.42857 3.32183 10.7504 2 12.381 2C14.0115 2 15.3333 3.32183 15.3333 4.95238C15.3333 9.74836 12.0816 13.7831 7.66373 14.9755C7.30826 15.0714 6.94232 14.8611 6.84638 14.5056C6.75044 14.1501 6.96083 13.7842 7.3163 13.6882C11.1672 12.6489 14 9.1306 14 4.95238C14 4.05821 13.2751 3.33333 12.381 3.33333C11.4868 3.33333 10.7619 4.05821 10.7619 4.95238C10.7619 8.16089 8.16089 10.7619 4.95238 10.7619C4.05821 10.7619 3.33333 11.4868 3.33333 12.381C3.33333 13.2751 4.05821 14 4.95238 14C5.32057 14 5.61905 14.2985 5.61905 14.6667C5.61905 15.0349 5.32057 15.3333 4.95238 15.3333C3.32183 15.3333 2 14.0115 2 12.381C2 10.7504 3.32183 9.42857 4.95238 9.42857C7.42451 9.42857 9.42857 7.42451 9.42857 4.95238Z" fill="#1C1C1C"/>
<path fill-rule="evenodd" clip-rule="evenodd" d="M10.8619 0.195262C11.1222 -0.0650874 11.5443 -0.0650874 11.8047 0.195262L12.6666 1.05719L13.5286 0.195262C13.7889 -0.0650874 14.211 -0.0650874 14.4714 0.195262C14.7317 0.455612 14.7317 0.877722 14.4714 1.13807L13.138 2.4714C12.8777 2.73175 12.4556 2.73175 12.1952 2.4714L10.8619 1.13807C10.6015 0.877722 10.6015 0.455612 10.8619 0.195262Z" fill="#1C1C1C"/>
<path fill-rule="evenodd" clip-rule="evenodd" d="M0.195262 11.5286C0.455612 11.2683 0.877722 11.2683 1.13807 11.5286L2.4714 12.8619C2.73175 13.1223 2.73175 13.5444 2.4714 13.8047L1.13807 15.1381C0.877722 15.3984 0.455612 15.3984 0.195262 15.1381C-0.0650874 14.8777 -0.0650874 14.4556 0.195262 14.1953L1.05719 13.3333L0.195262 12.4714C-0.0650874 12.2111 -0.0650874 11.789 0.195262 11.5286Z" fill="#1C1C1C"/>
</svg>
