<svg width="16" height="16" viewBox="0 0 16 16" fill="none" xmlns="http://www.w3.org/2000/svg">
<path fill-rule="evenodd" clip-rule="evenodd" d="M2.66663 4.66666C2.66663 3.56209 3.56206 2.66666 4.66663 2.66666H11.3333C12.4379 2.66666 13.3333 3.56209 13.3333 4.66666V5.99999C14.4379 5.99999 15.3333 6.89542 15.3333 7.99999V9.15376C15.3333 9.79329 15.2183 10.4276 14.9937 11.0264L13.2908 15.5674C13.1933 15.8276 12.9445 16 12.6666 16H3.33329C3.0554 16 2.80665 15.8276 2.70907 15.5674L1.0062 11.0264C0.78165 10.4276 0.666626 9.79329 0.666626 9.15376V7.99999C0.666626 6.89542 1.56206 5.99999 2.66663 5.99999V4.66666ZM3.99996 5.99999H9.99996C10.3681 5.99999 10.6666 6.29847 10.6666 6.66666C10.6666 7.03485 10.3681 7.33332 9.99996 7.33332H2.66663C2.29844 7.33332 1.99996 7.6318 1.99996 7.99999V9.15376C1.99996 9.63341 2.08623 10.1091 2.25464 10.5583L3.79529 14.6667H12.2046L13.7453 10.5583C13.9137 10.1091 14 9.63341 14 9.15376V7.99999C14 7.6318 13.7015 7.33332 13.3333 7.33332H12.6666C12.2984 7.33332 12 7.03485 12 6.66666V4.66666C12 4.29847 11.7015 3.99999 11.3333 3.99999H4.66663C4.29844 3.99999 3.99996 4.29847 3.99996 4.66666V5.99999Z" fill="#1C1C1C"/>
<path fill-rule="evenodd" clip-rule="evenodd" d="M8 1.33333C7.63181 1.33333 7.33333 1.63181 7.33333 2C7.33333 2.36819 7.63181 2.66667 8 2.66667C8.36819 2.66667 8.66667 2.96514 8.66667 3.33333C8.66667 3.70152 8.36819 4 8 4C6.89543 4 6 3.10457 6 2C6 0.895431 6.89543 0 8 0C8.74112 0 9.38723 0.403454 9.73203 0.999516C9.91639 1.31822 9.80748 1.72604 9.48878 1.9104C9.17007 2.09477 8.76225 1.98586 8.57789 1.66715C8.46161 1.46614 8.24592 1.33333 8 1.33333Z" fill="#1C1C1C"/>
<path fill-rule="evenodd" clip-rule="evenodd" d="M3.19992 11.0677C2.86895 11.0677 2.66659 11.312 2.66659 11.5344C2.66659 11.9026 2.36811 12.201 1.99992 12.201C1.63173 12.201 1.33325 11.9026 1.33325 11.5344C1.33325 10.5049 2.2054 9.73438 3.19992 9.73438C4.19444 9.73438 5.06659 10.5049 5.06659 11.5344C5.06659 11.9026 4.76811 12.201 4.39992 12.201C4.03173 12.201 3.73325 11.9026 3.73325 11.5344C3.73325 11.312 3.53089 11.0677 3.19992 11.0677Z" fill="#1C1C1C"/>
<path fill-rule="evenodd" clip-rule="evenodd" d="M5.60092 11.0677C5.26995 11.0677 5.06759 11.312 5.06759 11.5344C5.06759 11.9026 4.76911 12.201 4.40092 12.201C4.03273 12.201 3.73425 11.9026 3.73425 11.5344C3.73425 10.5049 4.6064 9.73438 5.60092 9.73438C6.59544 9.73438 7.46759 10.5049 7.46759 11.5344C7.46759 11.9026 7.16911 12.201 6.80092 12.201C6.43273 12.201 6.13425 11.9026 6.13425 11.5344C6.13425 11.312 5.93189 11.0677 5.60092 11.0677Z" fill="#1C1C1C"/>
<path fill-rule="evenodd" clip-rule="evenodd" d="M8.00021 11.0677C7.66925 11.0677 7.46688 11.312 7.46688 11.5344C7.46688 11.9026 7.1684 12.201 6.80021 12.201C6.43202 12.201 6.13354 11.9026 6.13354 11.5344C6.13354 10.5049 7.00569 9.73438 8.00021 9.73438C8.99473 9.73438 9.86688 10.5049 9.86688 11.5344C9.86688 11.9026 9.5684 12.201 9.20021 12.201C8.83202 12.201 8.53355 11.9026 8.53355 11.5344C8.53355 11.312 8.33118 11.0677 8.00021 11.0677Z" fill="#1C1C1C"/>
<path fill-rule="evenodd" clip-rule="evenodd" d="M10.3996 11.0677C10.0687 11.0677 9.86629 11.312 9.86629 11.5344C9.86629 11.9026 9.56782 12.201 9.19963 12.201C8.83144 12.201 8.53296 11.9026 8.53296 11.5344C8.53296 10.5049 9.40511 9.73438 10.3996 9.73438C11.3941 9.73438 12.2663 10.5049 12.2663 11.5344C12.2663 11.9026 11.9678 12.201 11.5996 12.201C11.2314 12.201 10.933 11.9026 10.933 11.5344C10.933 11.312 10.7306 11.0677 10.3996 11.0677Z" fill="#1C1C1C"/>
<path fill-rule="evenodd" clip-rule="evenodd" d="M12.7989 11.0677C12.468 11.0677 12.2656 11.312 12.2656 11.5344C12.2656 11.9026 11.9671 12.201 11.5989 12.201C11.2307 12.201 10.9323 11.9026 10.9323 11.5344C10.9323 10.5049 11.8044 9.73438 12.7989 9.73438C13.7934 9.73438 14.6656 10.5049 14.6656 11.5344C14.6656 11.9026 14.3671 12.201 13.9989 12.201C13.6307 12.201 13.3323 11.9026 13.3323 11.5344C13.3323 11.312 13.1299 11.0677 12.7989 11.0677Z" fill="#1C1C1C"/>
</svg>
