<svg width="16" height="16" viewBox="0 0 16 16" fill="none" xmlns="http://www.w3.org/2000/svg">
<path fill-rule="evenodd" clip-rule="evenodd" d="M13.8031 2.19449C14.0634 2.45484 14.0634 2.87695 13.8031 3.1373L12.8031 4.1373C12.5427 4.39765 12.1206 4.39765 11.8603 4.1373C11.5999 3.87695 11.5999 3.45484 11.8603 3.19449L12.8603 2.19449C13.1206 1.93414 13.5427 1.93414 13.8031 2.19449Z" fill="#1C1C1C"/>
<path fill-rule="evenodd" clip-rule="evenodd" d="M15.9991 5.33319C15.9991 5.70138 15.7006 5.99986 15.3324 5.99986L13.3324 5.99986C12.9642 5.99986 12.6657 5.70138 12.6657 5.33319C12.6657 4.965 12.9642 4.66652 13.3324 4.66652L15.3324 4.66652C15.7006 4.66652 15.9991 4.965 15.9991 5.33319Z" fill="#1C1C1C"/>
<path fill-rule="evenodd" clip-rule="evenodd" d="M10.6653 -0.00052995C11.0335 -0.000529978 11.3319 0.297947 11.3319 0.666137L11.3319 2.66614C11.3319 3.03433 11.0335 3.3328 10.6653 3.3328C10.2971 3.3328 9.99862 3.03433 9.99862 2.66614L9.99862 0.666137C9.99862 0.297947 10.2971 -0.000529978 10.6653 -0.00052995Z" fill="#1C1C1C"/>
<path fill-rule="evenodd" clip-rule="evenodd" d="M12.4778 6.77685C12.8131 8.70083 12.0204 10.7027 10.5256 11.9761L10.5201 11.9807L9.9309 12.4717C9.93045 12.4721 9.92999 12.4724 9.92954 12.4728C8.67163 13.5319 7.24394 14.3787 5.71394 14.9725C5.3707 15.1058 4.98445 14.9355 4.85122 14.5923C4.718 14.249 4.88825 13.8628 5.23149 13.7295C6.62472 13.1888 7.92579 12.4171 9.07205 11.4518L9.07468 11.4496L9.66362 10.9588C10.8275 9.9658 11.4144 8.42318 11.1629 6.99793C11.1616 6.99076 11.1604 6.98357 11.1594 6.97636C11.004 5.8888 10.1495 5.03429 9.06198 4.87892C9.05477 4.87789 9.04757 4.87674 9.0404 4.87548C7.61515 4.62396 6.07253 5.21086 5.07952 6.37471L4.58655 6.96629C3.08276 8.75202 2.0496 10.9124 1.62641 13.2105C1.50387 13.9655 2.16582 14.5553 2.80069 14.4173C3.16047 14.339 3.51554 14.5673 3.59376 14.9271C3.67197 15.2869 3.44371 15.6419 3.08392 15.7202C1.45158 16.075 0.0437002 14.5964 0.312025 12.9864L0.313922 12.9756C0.779017 10.4434 1.91492 8.06933 3.56554 6.10876C3.56591 6.10832 3.56628 6.10788 3.56666 6.10743L4.06224 5.51271C5.33556 4.01796 7.33751 3.22525 9.26149 3.56057C10.9268 3.80337 12.235 5.11151 12.4778 6.77685Z" fill="#1C1C1C"/>
<path fill-rule="evenodd" clip-rule="evenodd" d="M5.52615 4.86249C5.7865 4.60214 6.20861 4.60214 6.46896 4.86249L8.46896 6.86249C8.72931 7.12284 8.72931 7.54495 8.46896 7.8053C8.20861 8.06565 7.7865 8.06565 7.52615 7.8053L5.52615 5.8053C5.2658 5.54495 5.2658 5.12284 5.52615 4.86249Z" fill="#1C1C1C"/>
<path fill-rule="evenodd" clip-rule="evenodd" d="M6.85928 9.52856C7.11963 9.26821 7.54174 9.26821 7.80209 9.52856L8.46876 10.1952C8.72911 10.4556 8.72911 10.8777 8.46876 11.138C8.20841 11.3984 7.7863 11.3984 7.52595 11.138L6.85928 10.4714C6.59893 10.211 6.59893 9.78891 6.85928 9.52856Z" fill="#1C1C1C"/>
<path fill-rule="evenodd" clip-rule="evenodd" d="M2.19498 8.1954C2.45533 7.93505 2.87744 7.93505 3.13779 8.1954L5.13779 10.1954C5.39814 10.4558 5.39814 10.8779 5.13779 11.1382C4.87744 11.3986 4.45533 11.3986 4.19498 11.1382L2.19498 9.13821C1.93463 8.87786 1.93463 8.45575 2.19498 8.1954Z" fill="#1C1C1C"/>
</svg>
